<svg width="1440" height="145" viewBox="0 0 1440 145" fill="none" xmlns="http://www.w3.org/2000/svg">
<path d="M0 64L48 85.3C96 107 192 149 288 144C384 139 480 85 576 85.3C672 85 768 139 864 144C960 149 1056 107 1152 90.7C1248 75 1344 85 1392 90.7L1440 96V0H1392C1344 0 1248 0 1152 0C1056 0 960 0 864 0C768 0 672 0 576 0C480 0 384 0 288 0C192 0 96 0 48 0H0V64Z" fill="url(#paint0_linear_170_8)"/>
<defs>
<linearGradient id="paint0_linear_170_8" x1="0" y1="72.2053" x2="1440" y2="72.2053" gradientUnits="userSpaceOnUse">
<stop stop-color="#00B0A6"/>
<stop offset="1" stop-color="#F9D43C"/>
</linearGradient>
</defs>
</svg>
